<?xml version="1.0" encoding="utf-8"?>
<!-- Generator: Adobe Illustrator 24.3.0, SVG Export Plug-In . SVG Version: 6.00 Build 0)  -->
<svg version="1.1" id="Layer_1" xmlns="http://www.w3.org/2000/svg" xmlns:xlink="http://www.w3.org/1999/xlink" x="0px" y="0px"
	 viewBox="0 0 1200 800" style="enable-background:new 0 0 1200 800;" xml:space="preserve">
<style type="text/css">
	.st0{fill:#EC1C24;}
	.st1{fill:none;}
	.st2{fill:#EA2227;}
	.st3{fill:#F69220;}
</style>
<path id="path20" class="st0" d="M538.2,471.8H414.3c-2.1,0-3.8,1.7-3.8,3.8v9.4c0,2.1,1.7,3.8,3.8,3.8h91.9v50.9
	c-2.6-3.8-5.6-7.3-9-10.7c-10.7-11.1-22.6-16.7-34.6-16.7c-9.4,0-17.9,4.7-24.4,13.7c-5.1,7.3-8.5,15.8-8.5,23.5
	c0,8.1,1.3,18.4,7.3,27.8c7.7,11.5,19.7,15,30.3,15c14.1,0,26.1-9.8,26.1-22.2c0-7.3-3.8-13.7-10.7-17.5l-6.8-3.8V559
	c-0.4,2.6-5.6,7.3-11.1,7.3c-4.7,0-9.4-2.1-12-4.7c-2.1-2.1-2.6-5.6-2.6-8.1c0-3.4,1.3-6.8,3.8-10.3c3-3.4,6-5.1,10.7-5.1
	c12.4-0.4,22.6,5.6,31.2,17.9c6.8,10.3,10.3,20.1,10.3,30.8l0.4,25.6l18.4,11.1c0.4,0.4,1.3,0.4,2.1,0.4c2.1,0,3.8-1.7,3.8-3.8
	V489.3h7.3c2.1,0,3.8-1.7,3.8-3.8v-9.4C542.1,473.5,540.4,471.8,538.2,471.8"/>
<path id="path22" class="st0" d="M785.3,471.8H628.4c-2.1,0-3.8,1.7-3.8,3.8v17.5c-15-15.8-28.6-23.9-41-23.9
	c-11.5-0.4-21.8,2.6-29.5,9c-8.1,6.4-12.8,14.1-12.8,23.1c0,27.4,30.8,27.4,38.5,23.1c1.3-0.9,3-1.7,5.1-1.7c6.4,0,8.5,4.7,8.5,9
	c0,6.4-9,12-20.1,12c-6,0-9.8-1.7-12.4-5.1l-4.7-7.3l-3.4,8.1c-0.9,2.1-1.7,4.3-1.7,7.3c0,6.4,3.4,12.4,9,17.5
	c5.6,4.7,12.4,7.3,19.7,7.3c11.5,0,21.4-4.3,27.8-12.8c5.1-6.8,7.7-15,7.7-23.9c0-5.1-1.7-10.3-6-16.2c-5.1-7.3-11.1-10.7-17.9-10.7
	c-2.6,0-5.6,0.9-8.5,1.7c-1.3,0.4-3.4,0.9-3.8,0.9c-0.9,0-3-0.4-4.3-2.1c-0.9-0.9-2.6-3-2.6-6c0.4-6.8,6.4-13.7,17.1-13.7h0.4
	c7.3,0,14.5,3.4,21.8,10.3c5.6,5.1,9.8,10.7,13.2,16.7v97.4l18.4,10.7c0.4,0.4,1.3,0.4,2.1,0.4c2.1,0,3.8-1.7,3.8-3.8V489.3h27.8
	v84.6l22.2,9c0.4,0,0.9,0.4,1.3,0.4c2.1,0,3.8-1.7,3.8-3.4v-0.9c3.8-24.8,14.5-42.3,32.9-52.6v4.7c0,3.4,0.4,12.8,0.4,17.9
	c0,3,0.4,5.1,0.4,6.8c0,9.4,1.3,24.8,4.7,35.5c6,20.9,16.2,25.6,23.9,26.1h0.4c4.3,0,7.7-1.3,10.3-3.4c1.3-1.3,3-3.8,3-8.1
	c0-3.8-0.4-6.8-1.7-9l-1.7-3l-3.4,0.9c-3.8,0.9-5.1,0.9-5.6,0.9h-0.9c-0.9,0-1.3,0-1.7-0.4c-1.3-0.4-3.4-2.6-5.1-9.4
	c-1.3-5.1-1.7-11.5-1.7-15.4c0-27.4,5.6-47.9,14.5-52.6l0.4-0.4c1.3-0.9,2.1-2.1,2.1-3.4c0-0.9,0-1.3-0.4-1.7v-1.3
	c-4.3-8.5-13.2-14.5-25.6-17.9l-0.9-0.4h-0.9c-9.8,1.7-21.4,8.5-35.9,20.5c-3.8,3-7.3,6.4-10.7,9.4v-33.8h84.2
	c2.1,0,3.8-1.7,3.8-3.8v-9.4C789.1,473.5,787.4,471.8,785.3,471.8"/>
<path class="st1" d="M412.9,660.2c-0.9-1.2-1.7-2.4-2.4-3.8v9.8h3.1C413.3,664.2,413,662.2,412.9,660.2z"/>
<path class="st1" d="M745.6,639.3c9.1-0.5,18.3-1,27.5-1.3c5.3-0.2,10.7-0.3,16.1-0.6v-0.9c-14.1,0.1-28.2,1.1-42.2,2.6
	C746.5,639.2,746,639.3,745.6,639.3z"/>
<path class="st1" d="M410.5,133.3V630c1.2,0,2.3,0.5,3.1,1.4c3.5,4.2,6.1,8.9,8.8,13.6c0.9,0.4,1.7,0.9,2.4,1.4
	c0.3-0.7,0.6-1.4,1-2.1c1.6-3.4,6.4-3,8.4-0.4c0.4-1.5,0.7-3,1.1-4.4c0.7-2.6,2.6-3.7,4.6-3.6c2.7-5.2,6.8-9.6,11.8-12.5
	c6.3-3.7,12.3-4.4,19.4-5.1c8.1-0.8,15.1,3.1,20,8.9c1.7,0.5,1.2,0.4,0,0.1c0.1,0.1,0.1,0.1,0.2,0.2c0.7,0.3,1.4,0.5,2,0.8
	c3.2,1.1,6.5,2.1,9.8,2.9c3.4,0.9,6.8,1.6,10.2,2.2c2,0.4,4,0.6,6,1c-0.4-0.1-0.7-0.1-1-0.2c-2.4-0.3-6.7-1.4,0,0
	c0.2,0,0.4,0,0.5,0.1c15.2,1.6,30.5,1.5,45.8,0.6c7.3-0.4,14.6-1,21.8-1.6c21.6-7.4,44.8-6,67.7-5.9c9.2,0,17,4.5,21.9,11.3
	c5.7-0.8,11.4-1.6,17.1-2.4c31.7-4.7,63.9-9.9,96.1-9.9V133.3H410.5z"/>
<g id="g134" transform="translate(-5.7 -1.1)">
	<path id="path72" class="st2" d="M735.4,299.4c0,3.8,0,8.1-0.4,12c-1.3,17.1-5.6,32.9-12.4,47.9c-2.6,6-6,11.5-9.4,17.1
		c-25.6,40.6-70.5,67.1-121.8,67.1c-21.8,0-42.7-5.1-61.5-13.7c-48.7-23.1-82.5-73.1-82.5-130.3c0-56.8,32.5-105.6,79.9-129.1
		c-3.8,4.7-7.3,10.3-10.3,15.4c-0.4,0.4-0.4,0.9-0.9,1.3c-1.7,1.7-3.8,3-5.6,4.7l-6.4,6.4l-1.3,1.3c-0.4,0.4-0.9,0.9-1.3,1.7
		c-0.9,0.9-1.7,1.7-2.1,2.6c-1.3,1.7-3,3.4-4.3,5.6c-6,7.7-11.1,16.7-15,25.6l-1.3,2.6c-0.4,1.3-0.9,2.1-1.3,3.4
		c0,0.4-0.4,1.3-0.4,1.7c-0.4,1.7-1.3,3.4-1.7,5.1c-0.4,1.3-0.9,2.1-0.9,3.4c0,0.4-0.4,1.3-0.4,1.7c-0.4,1.3-0.4,2.1-0.9,3.4
		c-0.9,3.4-1.7,7.3-2.1,11.1c0,0.9-0.4,1.7-0.4,3c0,0.9,0,1.3-0.4,2.1c0,1.3,0,2.1-0.4,3.4v9.4c0,39.3,17.9,74.4,46.2,97.4
		c21.8,17.9,49.6,28.6,79.5,28.6c27.4,0,53-9,73.5-23.9c15-11.1,27.8-25.2,36.8-41.5c1.3-2.1,2.1-4.3,3.4-6.4
		c7.3-15,11.5-32.1,12-49.6v-4.3c0-4.3,0-8.1-0.4-12c0.4,0,0.4,0.4,0.4,0.4c2.1,1.7,3.8,3.4,5.6,5.1c1.7-3,3.4-6,5.6-8.5
		c1.3,5.6,2.1,11.1,2.6,16.7C735.4,290.8,735.4,295.1,735.4,299.4"/>
	<path id="path74" class="st3" d="M721.3,284.9v4.3c0,25.6-10.7,47-12,49.6c-0.9,2.1-2.1,4.3-3.4,6.4c-9,16.2-21.8,30.8-36.8,41.5
		c-20.5,15-46.2,23.9-73.5,23.9c-30.3,0-58.1-10.7-79.5-28.6C488,358.8,470,323.7,470,284.4V275c0-1.3,0-2.1,0.4-3.4
		c0-0.9,0-1.3,0.4-2.1c0-0.9,0.4-1.7,0.4-3c0.4-3.8,1.3-7.3,2.1-11.1c0.4-1.3,0.4-2.1,0.9-3.4c0-0.4,0.4-1.3,0.4-1.7
		c0.4-1.3,0.4-2.1,0.9-3.4c0.4-1.7,1.3-3.4,1.7-5.1c0-0.4,0.4-1.3,0.4-1.7c0.4-1.3,0.9-2.1,1.3-3.4l1.3-2.6c3.8-9,9-17.9,15-25.6
		c1.3-1.7,3-3.4,4.3-5.6c0.9-0.9,1.3-1.7,2.1-2.6c0.4-0.4,0.9-0.9,1.3-1.7l1.3-1.3l6.4-6.4c1.7-1.7,3.8-3.4,5.6-4.7
		c-0.4,0.4-0.4,0.9-0.9,1.3c-0.4,0.4-0.4,0.9-0.9,1.7c-7.3,15-12,32.1-13.7,50.9c-0.4,5.1-0.9,10.3-0.9,15.4
		c0,65.8,38.5,119.2,86.3,119.2h4.7c6.8,0,13.7-0.9,20.1-2.6c32.5-9,56-38.5,56-73.5v-2.1c-0.4-20.9-9.4-39.3-23.5-53
		c9.8,0.4,19.2,1.7,28.6,3.8c17.5,4.7,33.8,12.8,47.4,23.9c0.4,0,0.4,0.4,0.9,0.4C720.9,276.7,721.3,280.6,721.3,284.9"/>
	<path id="path76" class="st3" d="M721.7,284.9v4.3c0,26.9-12,50-12,50c-0.9,2.1-2.1,4.3-3.4,6.4c-9,16.2-21.8,30.8-37.2,41.9
		c-21.8,15.4-47,23.9-73.9,23.9c-29.1,0-57.7-10.3-79.9-28.6c-29.5-23.9-46.2-59.8-46.2-97.9s17.1-73.9,46.6-97.9l1.3-0.9
		c-0.4,0.4-0.4,0.9-0.9,1.3c-0.4,0.4-0.4,0.9-0.9,1.3c-28.6,23.9-45.3,59-45.3,96.2c0,37.6,16.7,73.1,45.7,97
		c22.2,18.4,50.4,28.2,79.5,28.2c26.5,0,51.7-8.1,73.1-23.5c15-10.7,27.8-25.2,36.8-41.5c1.3-2.1,2.1-4.3,3.4-6.4
		c0-0.4,12-23.1,12-49.6v-4.3c0-3.8,0-8.1-0.4-12v-0.4c0.4,0,0.4,0.4,0.9,0.4l0.4,0.4C721.7,277.2,721.7,281,721.7,284.9"/>
	<path id="path78" class="st2" d="M687.5,206.7c0,0-102.6-19.2-150.9,70.1c0,0,8.5-62,82.1-89.7l-14.5-27.4c0,0,29.5-26.5,81.2-19.7
		L687.5,206.7z"/>
	<path id="path80" class="st3" d="M560.2,254.1c0,0,41-53.4,134.6-39.7l-1.3-31.2c0,0,39.3-1.3,70.9,26.1l-38.9,59
		c0,0-26.9-31.2-82.5-32.1C620.4,235.7,592.7,238.7,560.2,254.1"/>
	<path id="path82" class="st3" d="M519.6,302.8c0,0-47-102.1,62-167.9l26.1,47.9c0,0-17.5,6-36.3,22.2
		C550.8,222.5,528.6,252.4,519.6,302.8"/>
	<g id="g132">
		<path id="path84" class="st0" d="M581.6,275c0,0-9,2.1-8.5-2.6c0-1.7,0.9-2.1,1.7-1.7c0-0.9-1.7-3,2.1-4.3c1.3-1.7,2.6-3.4,3-4.3
			c0.4-1.3,1.3-2.6,4.7-2.1c3.4,0.9,7.3,4.3,7.7,5.1c2.1,0,4.3,0.4,3.4,0.9c-0.9,0.4-1.3,1.3-0.9,1.3c0,0,1.3,0.9-2.1,0.9
			c0,0.9,0.9,0.9,1.3,1.3c0.4,0.4,0,0.9,0,0.9s0.4,1.7-1.3,1.3c-1.7-0.9-1.7-1.3-2.6-1.3c-0.4,0-1.7,0.4-1.7,0.9
			c0,0.4,2.1,1.7-0.4,2.1c-0.4,0.4,0.9,0.9,0,1.3c-0.9,0.4-4.7,3.4-6.4,3.8c-1.7,0-2.1-0.4-2.1-1.3s0.9-1.3,2.1-1.3
			C582,275.5,582,275,581.6,275"/>
		<path id="path86" class="st0" d="M580.7,284.4c-0.9,0-3.4-1.7-2.1-2.6c1.3-0.9,7.3-4.7,8.5-5.1c1.3-0.4,3,1.3,1.3,2.6
			C587.1,280.6,580.7,284.4,580.7,284.4"/>
		<path id="path88" class="st0" d="M590.1,280.2c0-0.9,0.9-4.7,0.9-5.6s3-0.9,2.1,2.1C592.7,280.2,590.1,281,590.1,280.2"/>
		<path id="path90" class="st0" d="M593.9,273.3c0,0,16.2-0.9,17.5,0s6.8,9.4,5.6,17.1s-3.8,9.8-14.1,10.7c0-2.6-0.4-9-1.7-10.7
			c-0.9-1.7-4.7-5.6-6.4-5.6c0,1.7-0.4,7.3-0.4,7.3s-5.1,0.4-6-0.9v-8.1c0,0,4.7-4.3,5.1-5.1c0.9,0.4,0.9,3,6.8,2.6
			C600.8,279.7,593.9,280.6,593.9,273.3"/>
		<path id="path92" class="st0" d="M588,280.6c0,0-5.1,4.3-6.4,5.1c-0.4,1.3-1.3,6,5.6,6C587.5,288.7,588,280.6,588,280.6"/>
		<path id="path94" class="st0" d="M575.6,287c-1.7,0-3-0.4-2.6-1.7c0-1.3,2.6-2.6,3.8-2.1c1.3,0.4,3.8,0.9,3.8,6.4
			c0.9,1.3,4.3,3.4,8.1,3.8c3.8,0.4,6.4-0.4,6.4,0.9v7.7c0,0-4.7,0-16.7-8.5c-0.9-1.3-1.7-2.1-1.7-4.3
			C576.9,288.3,576,287,575.6,287"/>
		<path id="path96" class="st0" d="M571.7,287.9c-2.1,0-7.7,4.7-3.4,6.8c1.3-0.9,2.1-2.1,2.1-2.1s-0.9,2.6,1.3,3.4
			c2.1,0.9,1.3-1.3,2.6-1.3c0.9,1.3,0.9,1.7,2.1,1.7s1.3-3.4,0-5.1C575.1,289.1,573.9,288.3,571.7,287.9"/>
		<path id="path98" class="st0" d="M596.1,288.7v15c0,0,5.1-1.7,5.6-3C601.6,298.1,600.8,288.7,596.1,288.7"/>
		<path id="path100" class="st0" d="M584.1,298.5c0,0,6,3.8,9.4,5.6c-0.4,0.9-3,3.8-3.8,3.8C588.8,307.5,584.5,301.5,584.1,298.5"/>
		<path id="polygon102" class="st0" d="M555.5,304.1h7.7v3h-7.3L555.5,304.1z"/>
		<path id="polygon104" class="st0" d="M643.1,302.8h-33.8l5.6,4.3h28.2V302.8z"/>
		<path id="path106" class="st0" d="M602.9,302.4c0.4-0.4,4.3,2.6,3.4,3c-1.3,0.4-11.5,5.1-12.4,4.7c-0.9-0.4-0.9-3,0.4-3.4
			C595.2,306.2,601.2,304.5,602.9,302.4"/>
		<path id="path108" class="st0" d="M591.4,309.6c-1.3-0.9-8.1,6-5.1,6.4s10.3,1.7,12,2.6c1.7-0.9,3.4-2.1,3-3c1.3,0,3,1.7,4.7,1.3
			c1.7-0.9,9.8-6.8,10.3-7.7c-1.7-1.3-5.1-3.4-6.8-3.4C608.1,305.8,596.9,312.2,591.4,309.6"/>
		<path id="path110" class="st0" d="M588,317.8c0.9,0,9.4,3.4,11.5,3c2.1-0.4,2.6-2.6,3.8-2.6c1.3,0,1.7,1.3,3.8,0
			c2.1-1.3,5.6-4.3,6.4-5.1c0,1.3,0,5.1-7.7,8.5s-26.1,8.5-26.5,11.1c0.9,0.4,3-0.4,4.7-1.3c0.9,0.9,2.6,3,2.1,7.3
			c-0.4,3.8-3.4,10.7-3.4,12.4v11.1c0,0.9,1.7,5.6-0.9,5.1c-2.1-0.4-3.8-0.4-4.7-0.4c-0.9,0-2.6,1.7-4.3,1.3
			c-1.7-0.4-4.3-0.9-4.3-1.7s1.7-0.9,3.4-1.3s2.6-2.1,5.6-3.4c0-2.1-0.9-16.7-0.9-19.7c0-3-0.9-9.4,0.4-12
			C577.7,327.6,584.5,317.8,588,317.8"/>
		<path id="path112" class="st0" d="M599.1,326.7c0,0.9,5.1,14.1,7.7,14.5c2.1,0.4,23.9-4.3,28.2-3c1.3,1.7,3.8,4.7,3.8,6.8
			c0,0,0.4,4.3,0,4.7c0.9,0,2.6-0.4,3-1.7c0.4-1.3,0-6.8,0.4-8.1c0-0.9,2.6-6.4-0.9-6c-3.4,0-13.7,0-17.1-0.9s-10.7-2.1-12.4-1.3
			s-3.8,3.8-3.8,4.7c-0.9,0-0.9-0.4-0.4-3c0.9-2.1,3.4-9,3-12.4C608.1,321.2,599.1,326.7,599.1,326.7"/>
		<path id="path114" class="st0" d="M586.7,305.8c0.4,0.4,0.4,1.7,1.3,2.1l-17.5-1.3c0,0-2.1-1.3-1.3-1.7L586.7,305.8z"/>
		<path id="path116" class="st0" d="M567.5,304.1H585c0,0-1.3-2.1-1.7-3.4c-3,0-16.2,0.4-16.2,0.4s-1.7,0-1.7,3.4
			C564.9,305.4,566.6,306.7,567.5,304.1"/>
		<path id="path118" class="st0" d="M550.8,307.1h3.4c0,0,1.3-0.4,0-1.7s-3.4-2.1-1.7-4.7c-1.7-0.4-4.3-0.9-3.8,4.7h-1.7
			c0,0-0.4-3-4.7-3c-3.8,0-14.1,4.3-14.1,4.3s11.1,3,14.1,3s4.7-2.6,4.7-2.6h1.3c0,0,0.4,2.1,1.3,3v3.4c0,0-1.7,0.4-1.3,2.6
			c0.4,1.7,1.7,1.7,1.7,1.7c0.4,0,0.9-0.4,2.1-0.4c0.9-0.9,0.4-3-1.3-3.8v-2.6c0,0,1.3-0.9,1.3-1.7S550.8,308.4,550.8,307.1"/>
		<path id="path120" class="st0" d="M571.7,324.2c1.3-0.9,1.7-2.6,1.7-2.6v-10.3c0-2.6-4.3-4.3-4.7-4.3h-0.4
			c-0.4,0.4-1.7,1.3-2.6,1.3c-1.3,0-1.7,0-3-1.3c-3.4,0-5.1,4.3-5.6,4.3c0,0.9-0.4,8.1,0,9.4c0.4,1.3,1.3,2.1,1.7,2.6
			c-0.9,2.6-4.3,16.2,0.4,17.9v2.1h12v-2.6C575.6,339.1,572.6,327.6,571.7,324.2 M558.5,311.4c0.4-0.4,1.7-3.8,4.3-3.8
			c1.3,1.3,2.1,1.3,3.4,1.3s2.1-0.9,3-1.3c1.3,0.4,3.8,1.7,3.8,3.4v10.3c0,0.4-0.4,1.3-1.3,1.7h-2.1v-4.3h-8.1v4.3h-1.7
			c-0.4-0.4-1.3-1.3-1.3-2.1C558.1,319.9,558.1,314.8,558.5,311.4 M566.6,339.6h-2.1c-0.4,0-0.9-0.4-0.9-0.9c0-0.4,0.4-0.9,0.9-0.9
			h2.1c0.4,0,0.9,0.4,0.9,0.9C567.5,339.1,567,339.6,566.6,339.6 M570.9,340.4l-5.6-6.4l-5.1,6.4c-3.4-1.3-1.3-12,0-16.7h11.1
			C572.2,328.5,574.3,338.7,570.9,340.4"/>
		<path id="path122" class="st0" d="M569.2,328.5c1.3-1.7-0.4-3-0.4-3h-6.8c-2.1,0-1.3,3-1.3,3l4.3,3.8
			C564.9,332.3,567.9,330.6,569.2,328.5"/>
		<path id="path124" class="st0" d="M566.6,332.7l4.3,5.1c0,0-0.4-6-0.4-7.7C569.2,330.2,566.6,332.7,566.6,332.7"/>
		<path id="path126" class="st0" d="M560.2,330.2c0,2.1-0.4,7.7-0.4,7.7l4.3-5.1C564,332.7,561.5,330.2,560.2,330.2"/>
		<path id="path128" class="st0" d="M568.3,317.3h0.9v-0.9c0-0.4-0.4-0.9-0.9-0.9h-6.4c-0.4,0-0.9,0.4-0.9,0.9v0.9h0.9H568.3z"/>
		<path id="path130" class="st0" d="M558.9,344.3h-0.9v0.9c0,0.4,0.4,0.9,0.9,0.9h12.4c0.4,0,0.9-0.4,0.9-0.9v-0.9h-0.9H558.9z"/>
	</g>
</g>
</svg>
